<?xml version="1.0" encoding="UTF-8"?>
<svg version="1.1" xmlns="http://www.w3.org/2000/svg" width="986" height="843">
<path d="M0 0 C0.75 1.6328125 0.75 1.6328125 1 4 C-0.24467188 6.13461228 -1.49261793 7.93770859 -3 9.875 C-3.93114093 11.12294874 -4.85932993 12.37310339 -5.78515625 13.625 C-6.29836426 14.3159375 -6.81157227 15.006875 -7.34033203 15.71875 C-10.47784974 20.03133686 -13.44708171 24.45977777 -16.4375 28.875 C-17.72630805 30.77230829 -19.01536847 32.66944517 -20.3046875 34.56640625 C-20.92827148 35.48437988 -21.55185547 36.40235352 -22.19433594 37.34814453 C-25.21930473 41.79070957 -28.2687081 46.2164141 -31.32397461 50.63818359 C-33.62966651 53.98169246 -35.90324071 57.34458622 -38.15405273 60.7253418 C-38.68868637 61.52812057 -39.22332001 62.33089935 -39.77415466 63.15800476 C-40.17868362 63.76586319 -40.58321259 64.37372162 -41 65 C-40.37996094 64.99333817 -39.75992188 64.98667633 -39.12109375 64.97981262 C49.99197761 64.06928571 139.02901305 71.73265909 419 196 C420.50892822 197.25744019 420.50892822 197.25744019 422.04833984 198.5402832 C430.40392334 205.55364821 438.26603387 212.95261404 445.9519043 220.69116211 C447.82183141 222.57188528 449.70232638 224.44156819 451.58398438 226.31054688 C458.51639486 233.23504664 464.94224506 240.2890473 471 248 C472.01126796 249.22106948 473.02638547 250.43897048 474.046875 251.65234375 C511.54116262 296.92884836 534.57979032 356.15392068 536 415 C536.02046387 415.77875488 536.04092773 416.55750977 536.06201172 417.35986328 C537.35693027 473.94031268 521.48069195 529.30593803 491 577 C490.60393555 577.62438965 490.20787109 578.2487793 489.79980469 578.89208984 C478.5758094 596.46852333 465.74246958 612.94656213 451.55859375 628.22265625 C449.4704719 630.48930455 447.43993504 632.78332891 445.4375 635.125 C439.46931559 641.99269546 432.94528568 648.34187005 426.02734375 654.24609375 C424.62158423 655.46225179 423.24005267 656.70676501 421.87890625 657.97265625 C414.69382308 664.64884652 406.97302522 670.53412112 399.12988281 676.40527344 C397.17283208 677.87059386 395.2228614 679.3448744 393.2734375 680.8203125 C322.725853 733.80780826 235.84947229 766.81012565 74.875 793.8125 C73.45634644 793.96141693 73.45634644 793.96141693 72.0090332 794.11334229 C41.17696861 797.30544222 10.36054434 798.38633001 -20.61940384 798.31805801 C-23.23804028 798.31239062 -25.85667017 798.30958689 -28.47531128 798.30697632 C-56.40862221 798.26657325 -84.17054407 797.57131797 -112 795 C-112.9907251 794.9104303 -113.9814502 794.8208606 -115.00219727 794.72857666 C-137.1245897 792.72287934 -159.18812616 790.57276041 -180.959198 786.04771423 C-181.90481535 785.8513333 -182.8504327 785.65495237 -183.82470512 785.45262051 C-184.54255243 785.30325574 -185.26039974 785.15389097 -186 785 C-185.36510115 764.68727738 -184.39958294 744.4044192 -183.30621243 724.11231542 C-183.07242464 719.76323949 -182.84151079 715.41401065 -182.61016846 711.06480408 C-182.15330128 702.48443931 -181.69372899 693.90422144 -181.23324895 685.32404989 C-180.85494673 678.27358552 -180.47786814 671.22305656 -180.1015625 664.17248535 C-180.04733706 663.15653333 -179.99311162 662.14058131 -179.93724298 661.09384286 C-179.88265594 660.07110918 -179.8280689 659.0483755 -179.7718277 657.99464989 C-177.07525018 607.47235263 -174.35272176 556.95144923 -171.62675631 506.43073055 C-171.51577557 504.37388432 -171.40480012 502.3170378 -171.2938261 500.2601912 C-169.76847489 471.98881952 -168.24217923 443.71749949 -166.71184921 415.44639683 C-166.23152819 406.57260367 -165.75173555 397.69878197 -165.27208066 388.82495278 C-164.89287062 381.81027598 -164.51296604 374.79563731 -164.13246179 367.7810306 C-163.8981095 363.45752446 -163.66446424 359.13398029 -163.43097353 354.81042755 C-163.31902438 352.74032724 -163.20677636 350.67024308 -163.09421492 348.60017598 C-162.51142301 337.87951064 -161.95172567 327.15870698 -161.45947266 316.43347168 C-161.37325345 314.58801884 -161.28697641 312.74256869 -161.20063782 310.89712143 C-161.0423087 307.50784161 -160.8931532 304.11834469 -160.74992371 300.72839737 C-159.75023923 278.36518815 -159.75023923 278.36518815 -155.6875 272.875 C-150.65998067 269.36742838 -145.48142774 268.41111861 -139.51171875 267.44921875 C-138.67291672 267.31012085 -137.83411469 267.17102295 -136.96989441 267.02770996 C-134.21025834 266.57348214 -131.4491202 266.12949555 -128.6875 265.6875 C-127.73804504 265.53415192 -126.78859009 265.38080383 -125.81036377 265.22280884 C-77.0114553 257.3670187 -27.85244956 252.04558092 21.625 254.75 C22.80722641 254.81385391 22.80722641 254.81385391 24.01333618 254.8789978 C72.60218911 257.57645336 120.95800941 266.725628 165 288 C166.18094238 288.56992676 166.18094238 288.56992676 167.38574219 289.15136719 C184.77767767 297.66354116 201.48350028 308.13420594 216 321 C216.83273437 321.72445313 217.66546875 322.44890625 218.5234375 323.1953125 C246.39569648 347.8086612 267.55788662 380.93404231 270 419 C271.5329166 452.33933264 263.40269342 483.70771329 242 510 C241.30519531 510.88300781 240.61039063 511.76601563 239.89453125 512.67578125 C232.03056547 522.51617736 223.73090789 531.96842345 214 540 C213.154375 540.73347656 212.30875 541.46695313 211.4375 542.22265625 C197.74179415 553.96449102 183.03776585 563.75726298 167 572 C166.08250977 572.474375 165.16501953 572.94875 164.21972656 573.4375 C95.13072801 608.79928 18.24184616 615.08834154 -58 616 C-58.04789169 616.93135269 -58.09578339 617.86270538 -58.14512634 618.82228088 C-58.59983243 627.66207429 -59.05574446 636.50180481 -59.51279354 645.34147739 C-59.74764662 649.88444098 -59.9820961 654.42742461 -60.21557617 658.97045898 C-60.44152433 663.36663319 -60.66859409 667.76274824 -60.89639473 672.15882683 C-60.98248617 673.82385191 -61.06819457 675.48889685 -61.15348625 677.15396309 C-61.68083856 687.4429716 -62.28086841 697.72245317 -63 708 C-46.36727059 707.71193559 -29.73504095 707.40235698 -13.10327148 707.06317139 C-11.20110087 707.02445007 -9.2989217 706.98614346 -7.39672852 706.94854736 C76.77294481 705.27915097 162.46782269 692.4570416 322 607 C322.56638184 606.53513184 323.13276367 606.07026367 323.71630859 605.59130859 C339.06391571 592.93686032 353.99012221 578.89971675 366 563 C366.80179688 561.99195313 367.60359375 560.98390625 368.4296875 559.9453125 C403.01428754 516.33663377 421.34131749 460.67046868 415.17773438 404.97875977 C409.94218606 364.07078903 393.4570732 325.02701771 366 294 C365.35675781 293.24847656 364.71351563 292.49695313 364.05078125 291.72265625 C353.42230297 279.55557921 341.88357011 267.76370935 329 258 C328.29536621 257.45666016 327.59073242 256.91332031 326.86474609 256.35351562 C309.69967624 243.12203438 291.90111187 231.58494561 273 221 C272.3100293 220.61102539 271.62005859 220.22205078 270.90917969 219.82128906 C249.66074955 207.92258098 226.95053925 199.01520701 204 191 C202.92008789 190.62133789 201.84017578 190.24267578 200.72753906 189.85253906 C143.16534685 169.91585909 82.58138054 160.96756501 22 157 C20.39487549 156.89196045 20.39487549 156.89196045 18.75732422 156.78173828 C3.5160934 155.78814603 -11.73267234 155.89169745 -27 156 C-21.82058406 161.27493795 -16.61504565 166.4177175 -10.99609375 171.22265625 C-7.93333273 173.94977223 -5.09776507 176.89404637 -2.21875 179.8125 C0.39995532 182.39432215 3.15220498 184.77477776 5.9453125 187.1640625 C9.14741818 190.02525959 12.12375777 193.10281722 15.1171875 196.1796875 C16.87753339 198.06383898 16.87753339 198.06383898 19 199 C18.67 200.32 18.34 201.64 18 203 C8.43574511 201.45784437 -0.91693686 199.13979806 -10.30859375 196.80078125 C-12.03484992 196.37346165 -13.76117534 195.94642174 -15.48756409 195.51963806 C-20.16058256 194.36342429 -24.8325018 193.20282535 -29.50421143 192.04133606 C-33.45819971 191.0588861 -37.41283674 190.0790616 -41.36746788 189.09920311 C-73.47174563 181.14397496 -105.5591916 173.12132586 -137.64330292 165.08521271 C-156.82402624 160.28142426 -176.00791457 155.49153323 -195.20703125 150.76171875 C-196.04990566 150.55405758 -196.89278008 150.34639641 -197.76119614 150.13244247 C-205.68616242 148.18039392 -213.61186474 146.23136859 -221.5389576 144.2879734 C-237.7264646 140.31876147 -253.89021019 136.27590648 -270 132 C-270 131.34 -270 130.68 -270 130 C-263.4435823 126.7818301 -256.88625757 123.56551362 -250.32836914 120.3503418 C-248.10877065 119.26187716 -245.8893621 118.17302508 -243.67016602 117.08374023 C-231.2182985 110.97213444 -218.74889737 104.90227155 -206.22834778 98.93252563 C-197.80547573 94.91473226 -189.41361546 90.8352546 -181.02941895 86.73748779 C-168.49349282 80.61145048 -155.94552825 74.51316649 -143.35888672 68.49194336 C-134.47268514 64.23694143 -125.61040918 59.93336623 -116.75 55.625 C-106.0072879 50.40142913 -95.2600301 45.18781803 -84.5 40 C-73.08364701 34.49528955 -61.68083051 28.96313708 -50.28219604 23.42184448 C-38.49215243 17.69063897 -26.69221755 11.98026526 -14.8828125 6.2890625 C-13.76777344 5.75152344 -12.65273438 5.21398437 -11.50390625 4.66015625 C-10.53267822 4.19230713 -9.5614502 3.72445801 -8.56079102 3.24243164 C-6.95560971 2.46363789 -5.36029513 1.66378368 -3.78100586 0.83374023 C-2 0 -2 0 0 0 Z M-44 346 C-46.03150064 379.95293496 -47.96334113 413.91041145 -49.78979492 447.875 C-50.1257084 454.1173661 -50.46663894 460.35944875 -50.80852795 466.60149002 C-51.07631856 471.50695486 -51.3405073 476.41260901 -51.60372353 481.31832123 C-51.72796795 483.62259896 -51.85352441 485.92680641 -51.98052025 488.23093414 C-52.6370803 500.16529831 -53.20864209 512.04505603 -53 524 C-9.51161546 538.49612818 62.33070375 516.51074578 102.0234375 497.06640625 C123.11627943 486.35889437 141.57802658 469.17854066 149.30859375 446.4375 C153.39223107 432.04094808 151.60339695 417.02305094 144.4375 403.9375 C124.64932873 373.23343576 89.18259535 357.27732816 54.73922729 349.73535156 C35.62222024 345.78576856 16.79230105 344.54864344 -2.70483398 344.71875 C-6.35475802 344.75036604 -10.00424827 344.75978842 -13.65429688 344.765625 C-16.01563022 344.77478199 -18.37695924 344.78515356 -20.73828125 344.796875 C-22.34477287 344.80324982 -22.34477287 344.80324982 -23.98371887 344.80975342 C-30.70184336 344.87285645 -37.31985599 345.28432742 -44 346 Z " fill="#E41036" transform="translate(321,15)"/>
</svg>
