<?xml version="1.0" standalone="no"?>
<!DOCTYPE svg PUBLIC "-//W3C//DTD SVG 20010904//EN"
 "http://www.w3.org/TR/2001/REC-SVG-20010904/DTD/svg10.dtd">
<svg version="1.0" xmlns="http://www.w3.org/2000/svg"
 width="1080.000000pt" height="1080.000000pt" viewBox="0 0 1080.000000 1080.000000"
 preserveAspectRatio="xMidYMid meet">

<g transform="translate(0.000000,1080.000000) scale(0.100000,-0.100000)"
fill="#000000" stroke="none">
<path d="M0 5400 l0 -5400 5400 0 5400 0 0 5400 0 5400 -5400 0 -5400 0 0
-5400z m2416 728 c-14 -47 -21 -56 -63 -78 -63 -33 -153 -118 -199 -187 -36
-55 -36 -56 -20 -89 24 -51 91 -119 188 -192 l88 -65 0 -103 0 -103 -60 -41
-61 -41 22 -37 c13 -20 31 -49 41 -64 18 -25 18 -29 3 -65 l-16 -38 -63 66
-62 65 -16 -38 c-29 -67 -101 -94 -173 -64 -132 55 -71 258 73 243 37 -4 42
-2 36 12 -19 44 -43 118 -44 134 0 15 7 18 38 15 34 -3 40 -8 69 -63 18 -33
34 -64 36 -69 3 -10 167 72 167 83 0 8 -153 76 -227 102 -71 24 -169 42 -193
34 -43 -14 -110 -214 -110 -328 0 -57 -2 -61 -44 -103 -24 -24 -48 -44 -53
-44 -13 0 -18 25 -34 160 -14 127 -7 356 16 490 l16 95 62 59 c115 108 361
257 532 321 57 22 60 22 63 5 2 -10 -4 -42 -12 -72z m359 2 c135 -66 254 -142
367 -237 84 -70 81 -64 108 -233 23 -150 5 -590 -24 -590 -7 0 -33 21 -59 48
-34 35 -45 52 -41 68 17 64 -44 288 -92 340 -23 24 -29 25 -77 19 -70 -10
-176 -45 -283 -95 l-89 -41 80 -44 c44 -25 83 -45 87 -45 4 0 22 28 39 63 36
71 42 77 87 77 37 0 37 -3 0 -109 -10 -30 -18 -55 -18 -57 0 -1 17 0 38 3 78
10 142 -48 142 -128 0 -42 -5 -55 -34 -87 -32 -34 -38 -37 -91 -37 -53 0 -59
3 -91 37 -19 21 -34 47 -34 58 0 11 -4 20 -10 20 -5 0 -10 -4 -10 -8 0 -12
-100 -122 -110 -122 -5 0 -14 17 -21 39 -11 37 -10 41 30 100 l42 61 -66 41
-65 41 0 102 0 101 71 49 c78 56 213 191 221 223 12 45 -107 184 -217 255 -64
42 -83 73 -84 140 l-1 38 43 -16 c23 -9 96 -42 162 -74z m-216 -128 c72 -36
89 -127 36 -191 l-25 -29 65 -11 c36 -7 77 -16 91 -21 l25 -10 -23 -30 c-21
-29 -25 -30 -99 -30 l-78 0 -7 -37 c-11 -59 3 -430 20 -523 19 -104 42 -176
69 -213 19 -28 22 -28 81 -22 95 10 175 34 248 72 65 34 69 35 117 23 91 -21
92 -29 18 -88 -144 -115 -351 -229 -525 -289 l-80 -27 -88 33 c-102 38 -288
130 -354 174 -106 71 -220 161 -212 169 5 5 34 16 65 25 57 16 58 16 107 -11
108 -59 304 -102 337 -75 65 55 103 272 103 597 l0 192 -78 0 c-70 0 -81 3
-101 24 -13 14 -20 29 -17 34 5 9 46 20 134 37 l34 7 -23 24 c-16 17 -24 40
-27 77 -4 47 -1 57 24 86 45 54 101 65 163 33z m1468 -293 c69 -26 141 -94
173 -165 18 -38 24 -68 24 -134 1 -79 -1 -89 -35 -150 -109 -199 -370 -229
-522 -60 -26 29 -53 72 -62 101 -20 59 -22 152 -5 206 27 87 112 176 196 207
60 22 163 20 231 -5z m4273 2 c5 -11 60 -138 121 -283 62 -145 118 -278 126
-296 l14 -33 -72 3 -71 3 -27 65 -28 65 -133 0 -134 0 -26 -65 -26 -65 -73 -3
c-40 -2 -71 1 -68 5 3 4 60 139 127 298 67 160 126 298 131 308 14 26 124 25
139 -2z m-3920 -266 l0 -275 175 0 175 0 0 -35 0 -35 -210 0 -210 0 0 310 0
310 35 0 35 0 0 -275z m805 243 c63 -33 118 -88 147 -147 34 -68 33 -197 -2
-264 -30 -59 -96 -122 -158 -150 -40 -19 -69 -22 -204 -25 l-158 -4 0 312 0
312 163 -4 c152 -3 165 -5 212 -30z m490 -90 c43 -68 79 -124 80 -126 1 -1 39
54 83 123 l81 125 76 0 75 0 0 -310 0 -310 -65 0 -65 0 0 201 c0 110 -4 198
-8 195 -5 -3 -46 -64 -91 -136 l-83 -131 -86 136 -87 135 -3 -200 -2 -200 -70
0 -70 0 0 310 0 310 79 0 79 0 77 -122z m617 -89 l3 -211 37 -34 c33 -30 44
-34 90 -34 62 0 113 27 128 66 6 14 10 115 10 225 l0 199 70 0 70 0 0 -219 0
-219 -28 -53 c-16 -31 -46 -68 -70 -86 -109 -83 -286 -70 -379 28 -62 65 -67
91 -71 332 l-4 217 70 0 71 0 3 -211z m998 146 l0 -65 -95 0 -95 0 0 -245 0
-245 -70 0 -70 0 0 245 0 245 -95 0 -95 0 0 65 0 65 260 0 260 0 0 -65z m202
-146 l3 -211 37 -34 c33 -29 45 -34 88 -34 28 0 64 7 80 15 55 28 60 53 60
275 l0 200 70 0 70 0 0 -212 c-1 -233 -6 -259 -59 -326 -43 -55 -109 -85 -194
-90 -92 -6 -148 12 -207 65 -80 72 -90 112 -90 358 l0 205 69 0 70 0 3 -211z
m1268 -34 l0 -245 155 0 155 0 0 -65 0 -65 -225 0 -225 0 0 310 0 310 70 0 70
0 0 -245z"/>
<path d="M2040 5210 c-11 -11 -20 -29 -20 -40 0 -27 35 -60 63 -60 53 0 77 75
35 104 -30 21 -54 20 -78 -4z"/>
<path d="M2878 5213 c-26 -31 -29 -42 -17 -65 15 -29 28 -38 55 -38 50 0 73
76 32 104 -29 21 -51 20 -70 -1z"/>
<path d="M2457 5932 c-35 -39 -7 -102 44 -102 26 0 61 49 53 74 -13 46 -67 61
-97 28z"/>
<path d="M3805 5641 c-51 -24 -109 -85 -131 -136 -22 -53 -21 -142 3 -196 60
-134 237 -189 360 -112 161 100 160 328 -1 428 -64 39 -168 46 -231 16z"/>
<path d="M8193 5477 c-18 -45 -35 -90 -39 -99 -6 -16 2 -18 76 -18 74 0 82 2
76 18 -33 87 -72 182 -76 182 -3 0 -19 -37 -37 -83z"/>
<path d="M4880 5409 l0 -241 118 4 c95 3 125 8 157 25 87 46 135 123 135 215
0 66 -25 122 -75 170 -54 52 -108 68 -232 68 l-103 0 0 -241z"/>
</g>
</svg>
